<mxfile host="app.diagrams.net" modified="2024-01-15T09:21:08.467Z" agent="Mozilla/5.0 (Windows NT 10.0; Win64; x64) AppleWebKit/537.36 (KHTML, like Gecko) Chrome/120.0.0.0 Safari/537.36" etag="Z64PSr541vH9M3n-1CV0" version="22.1.18" type="device">
  <diagram id="C5RBs43oDa-KdzZeNtuy" name="Page-1">
    <mxGraphModel dx="1985" dy="1250" grid="1" gridSize="10" guides="1" tooltips="1" connect="1" arrows="1" fold="1" page="1" pageScale="1" pageWidth="827" pageHeight="1169" math="0" shadow="0">
      <root>
        <mxCell id="WIyWlLk6GJQsqaUBKTNV-0" />
        <mxCell id="WIyWlLk6GJQsqaUBKTNV-1" parent="WIyWlLk6GJQsqaUBKTNV-0" />
        <mxCell id="052il4yMvHA40FeF9xnv-0" value="Main" style="swimlane;fontStyle=1;align=center;verticalAlign=top;childLayout=stackLayout;horizontal=1;startSize=26;horizontalStack=0;resizeParent=1;resizeParentMax=0;resizeLast=0;collapsible=1;marginBottom=0;whiteSpace=wrap;html=1;" parent="WIyWlLk6GJQsqaUBKTNV-1" vertex="1">
          <mxGeometry x="360" y="140" width="220" height="104" as="geometry" />
        </mxCell>
        <mxCell id="052il4yMvHA40FeF9xnv-2" value="" style="line;strokeWidth=1;fillColor=none;align=left;verticalAlign=middle;spacingTop=-1;spacingLeft=3;spacingRight=3;rotatable=0;labelPosition=right;points=[];portConstraint=eastwest;strokeColor=inherit;" parent="052il4yMvHA40FeF9xnv-0" vertex="1">
          <mxGeometry y="26" width="220" height="8" as="geometry" />
        </mxCell>
        <mxCell id="052il4yMvHA40FeF9xnv-3" value="+ main : void&lt;br&gt;+ static StringZuList : List&amp;lt;String&amp;gt;" style="text;strokeColor=none;fillColor=none;align=left;verticalAlign=top;spacingLeft=4;spacingRight=4;overflow=hidden;rotatable=0;points=[[0,0.5],[1,0.5]];portConstraint=eastwest;whiteSpace=wrap;html=1;" parent="052il4yMvHA40FeF9xnv-0" vertex="1">
          <mxGeometry y="34" width="220" height="70" as="geometry" />
        </mxCell>
        <mxCell id="052il4yMvHA40FeF9xnv-5" value="Swissstockmarket" style="swimlane;fontStyle=1;align=center;verticalAlign=top;childLayout=stackLayout;horizontal=1;startSize=26;horizontalStack=0;resizeParent=1;resizeParentMax=0;resizeLast=0;collapsible=1;marginBottom=0;whiteSpace=wrap;html=1;" parent="WIyWlLk6GJQsqaUBKTNV-1" vertex="1">
          <mxGeometry x="380" y="720" width="270" height="140" as="geometry" />
        </mxCell>
        <mxCell id="052il4yMvHA40FeF9xnv-6" value="- Stockliste List&amp;lt;Stock&amp;gt;" style="text;strokeColor=none;fillColor=none;align=left;verticalAlign=top;spacingLeft=4;spacingRight=4;overflow=hidden;rotatable=0;points=[[0,0.5],[1,0.5]];portConstraint=eastwest;whiteSpace=wrap;html=1;" parent="052il4yMvHA40FeF9xnv-5" vertex="1">
          <mxGeometry y="26" width="270" height="26" as="geometry" />
        </mxCell>
        <mxCell id="052il4yMvHA40FeF9xnv-7" value="" style="line;strokeWidth=1;fillColor=none;align=left;verticalAlign=middle;spacingTop=-1;spacingLeft=3;spacingRight=3;rotatable=0;labelPosition=right;points=[];portConstraint=eastwest;strokeColor=inherit;" parent="052il4yMvHA40FeF9xnv-5" vertex="1">
          <mxGeometry y="52" width="270" height="8" as="geometry" />
        </mxCell>
        <mxCell id="052il4yMvHA40FeF9xnv-8" value="&lt;b style=&quot;border-color: var(--border-color); text-align: center;&quot;&gt;+Swissstockmarket&lt;br&gt;+ GetPrice(Stockname : String) : double&lt;br style=&quot;border-color: var(--border-color);&quot;&gt;+ GetName(Stockname : String) : String&lt;br style=&quot;border-color: var(--border-color);&quot;&gt;+ GetWaehrung(Stocckname: String) : String&lt;br&gt;&lt;b style=&quot;border-color: var(--border-color);&quot;&gt;+ AlleAktienMarketAnzeigen() : void&lt;/b&gt;&lt;br&gt;&lt;/b&gt;" style="text;strokeColor=none;fillColor=none;align=left;verticalAlign=top;spacingLeft=4;spacingRight=4;overflow=hidden;rotatable=0;points=[[0,0.5],[1,0.5]];portConstraint=eastwest;whiteSpace=wrap;html=1;" parent="052il4yMvHA40FeF9xnv-5" vertex="1">
          <mxGeometry y="60" width="270" height="80" as="geometry" />
        </mxCell>
        <mxCell id="052il4yMvHA40FeF9xnv-9" value="Portfolio" style="swimlane;fontStyle=1;align=center;verticalAlign=top;childLayout=stackLayout;horizontal=1;startSize=26;horizontalStack=0;resizeParent=1;resizeParentMax=0;resizeLast=0;collapsible=1;marginBottom=0;whiteSpace=wrap;html=1;" parent="WIyWlLk6GJQsqaUBKTNV-1" vertex="1">
          <mxGeometry x="280" y="310" width="380" height="140" as="geometry" />
        </mxCell>
        <mxCell id="052il4yMvHA40FeF9xnv-10" value="+ Aktienliste List&amp;lt;String&amp;gt;&lt;br&gt;+ stockExchange stockExchange" style="text;strokeColor=none;fillColor=none;align=left;verticalAlign=top;spacingLeft=4;spacingRight=4;overflow=hidden;rotatable=0;points=[[0,0.5],[1,0.5]];portConstraint=eastwest;whiteSpace=wrap;html=1;" parent="052il4yMvHA40FeF9xnv-9" vertex="1">
          <mxGeometry y="26" width="380" height="54" as="geometry" />
        </mxCell>
        <mxCell id="052il4yMvHA40FeF9xnv-11" value="" style="line;strokeWidth=1;fillColor=none;align=left;verticalAlign=middle;spacingTop=-1;spacingLeft=3;spacingRight=3;rotatable=0;labelPosition=right;points=[];portConstraint=eastwest;strokeColor=inherit;" parent="052il4yMvHA40FeF9xnv-9" vertex="1">
          <mxGeometry y="80" width="380" height="8" as="geometry" />
        </mxCell>
        <mxCell id="052il4yMvHA40FeF9xnv-12" value="+ Portfolio(Aktienliste : List&amp;lt;String&amp;gt;, stockExchange stockExchange)&lt;br&gt;+ calculatePortfolioValue : void&lt;br&gt;+ showPortfolio : void" style="text;strokeColor=none;fillColor=none;align=left;verticalAlign=top;spacingLeft=4;spacingRight=4;overflow=hidden;rotatable=0;points=[[0,0.5],[1,0.5]];portConstraint=eastwest;whiteSpace=wrap;html=1;" parent="052il4yMvHA40FeF9xnv-9" vertex="1">
          <mxGeometry y="88" width="380" height="52" as="geometry" />
        </mxCell>
        <mxCell id="052il4yMvHA40FeF9xnv-13" value="USstockmarket" style="swimlane;fontStyle=1;align=center;verticalAlign=top;childLayout=stackLayout;horizontal=1;startSize=26;horizontalStack=0;resizeParent=1;resizeParentMax=0;resizeLast=0;collapsible=1;marginBottom=0;whiteSpace=wrap;html=1;" parent="WIyWlLk6GJQsqaUBKTNV-1" vertex="1">
          <mxGeometry x="10" y="720" width="280" height="150" as="geometry" />
        </mxCell>
        <mxCell id="052il4yMvHA40FeF9xnv-14" value="- Stockliste List&amp;lt;Stock&amp;gt;" style="text;strokeColor=none;fillColor=none;align=left;verticalAlign=top;spacingLeft=4;spacingRight=4;overflow=hidden;rotatable=0;points=[[0,0.5],[1,0.5]];portConstraint=eastwest;whiteSpace=wrap;html=1;" parent="052il4yMvHA40FeF9xnv-13" vertex="1">
          <mxGeometry y="26" width="280" height="26" as="geometry" />
        </mxCell>
        <mxCell id="052il4yMvHA40FeF9xnv-15" value="" style="line;strokeWidth=1;fillColor=none;align=left;verticalAlign=middle;spacingTop=-1;spacingLeft=3;spacingRight=3;rotatable=0;labelPosition=right;points=[];portConstraint=eastwest;strokeColor=inherit;" parent="052il4yMvHA40FeF9xnv-13" vertex="1">
          <mxGeometry y="52" width="280" height="8" as="geometry" />
        </mxCell>
        <mxCell id="052il4yMvHA40FeF9xnv-16" value="&lt;b style=&quot;border-color: var(--border-color); text-align: center;&quot;&gt;+USstockmarket&lt;br&gt;+ GetPrice(Stockname : String) : double&lt;br style=&quot;border-color: var(--border-color);&quot;&gt;+ AlleAktienMarketAnzeigen() : void&lt;br&gt;&lt;b style=&quot;border-color: var(--border-color);&quot;&gt;+ GetWaehrung(Stocckname: String) : String&lt;br&gt;&lt;/b&gt;+ GetName(Stockname : String) : String&lt;br style=&quot;border-color: var(--border-color);&quot;&gt;&lt;br&gt;&lt;/b&gt;" style="text;strokeColor=none;fillColor=none;align=left;verticalAlign=top;spacingLeft=4;spacingRight=4;overflow=hidden;rotatable=0;points=[[0,0.5],[1,0.5]];portConstraint=eastwest;whiteSpace=wrap;html=1;" parent="052il4yMvHA40FeF9xnv-13" vertex="1">
          <mxGeometry y="60" width="280" height="90" as="geometry" />
        </mxCell>
        <mxCell id="052il4yMvHA40FeF9xnv-17" value="EUstockmarket" style="swimlane;fontStyle=1;align=center;verticalAlign=top;childLayout=stackLayout;horizontal=1;startSize=26;horizontalStack=0;resizeParent=1;resizeParentMax=0;resizeLast=0;collapsible=1;marginBottom=0;whiteSpace=wrap;html=1;" parent="WIyWlLk6GJQsqaUBKTNV-1" vertex="1">
          <mxGeometry x="780" y="720" width="270" height="150" as="geometry" />
        </mxCell>
        <mxCell id="052il4yMvHA40FeF9xnv-18" value="- Stockliste List&amp;lt;Stock&amp;gt;" style="text;strokeColor=none;fillColor=none;align=left;verticalAlign=top;spacingLeft=4;spacingRight=4;overflow=hidden;rotatable=0;points=[[0,0.5],[1,0.5]];portConstraint=eastwest;whiteSpace=wrap;html=1;" parent="052il4yMvHA40FeF9xnv-17" vertex="1">
          <mxGeometry y="26" width="270" height="26" as="geometry" />
        </mxCell>
        <mxCell id="052il4yMvHA40FeF9xnv-19" value="" style="line;strokeWidth=1;fillColor=none;align=left;verticalAlign=middle;spacingTop=-1;spacingLeft=3;spacingRight=3;rotatable=0;labelPosition=right;points=[];portConstraint=eastwest;strokeColor=inherit;" parent="052il4yMvHA40FeF9xnv-17" vertex="1">
          <mxGeometry y="52" width="270" height="8" as="geometry" />
        </mxCell>
        <mxCell id="052il4yMvHA40FeF9xnv-20" value="&lt;b style=&quot;border-color: var(--border-color); text-align: center;&quot;&gt;+EUstockmarket&lt;br&gt;+ GetPrice(Stockname : String) : double&lt;br style=&quot;border-color: var(--border-color);&quot;&gt;+ GetName(Stockname : String) : String&lt;br&gt;&lt;b style=&quot;border-color: var(--border-color);&quot;&gt;+ AlleAktienMarketAnzeigen() : void&lt;br style=&quot;border-color: var(--border-color);&quot;&gt;&lt;/b&gt;+ GetWaehrung(Stocckname: String) : String&lt;/b&gt;" style="text;strokeColor=none;fillColor=none;align=left;verticalAlign=top;spacingLeft=4;spacingRight=4;overflow=hidden;rotatable=0;points=[[0,0.5],[1,0.5]];portConstraint=eastwest;whiteSpace=wrap;html=1;" parent="052il4yMvHA40FeF9xnv-17" vertex="1">
          <mxGeometry y="60" width="270" height="90" as="geometry" />
        </mxCell>
        <mxCell id="052il4yMvHA40FeF9xnv-21" value="Stock" style="swimlane;fontStyle=1;align=center;verticalAlign=top;childLayout=stackLayout;horizontal=1;startSize=26;horizontalStack=0;resizeParent=1;resizeParentMax=0;resizeLast=0;collapsible=1;marginBottom=0;whiteSpace=wrap;html=1;" parent="WIyWlLk6GJQsqaUBKTNV-1" vertex="1">
          <mxGeometry x="320" y="959" width="380" height="210" as="geometry" />
        </mxCell>
        <mxCell id="052il4yMvHA40FeF9xnv-22" value="- name : String&lt;br&gt;- price : double&lt;br&gt;- Waehrung : String" style="text;strokeColor=none;fillColor=none;align=left;verticalAlign=top;spacingLeft=4;spacingRight=4;overflow=hidden;rotatable=0;points=[[0,0.5],[1,0.5]];portConstraint=eastwest;whiteSpace=wrap;html=1;" parent="052il4yMvHA40FeF9xnv-21" vertex="1">
          <mxGeometry y="26" width="380" height="62" as="geometry" />
        </mxCell>
        <mxCell id="052il4yMvHA40FeF9xnv-23" value="" style="line;strokeWidth=1;fillColor=none;align=left;verticalAlign=middle;spacingTop=-1;spacingLeft=3;spacingRight=3;rotatable=0;labelPosition=right;points=[];portConstraint=eastwest;strokeColor=inherit;" parent="052il4yMvHA40FeF9xnv-21" vertex="1">
          <mxGeometry y="88" width="380" height="8" as="geometry" />
        </mxCell>
        <mxCell id="052il4yMvHA40FeF9xnv-24" value="&lt;b style=&quot;border-color: var(--border-color); text-align: center;&quot;&gt;+Stock(Name : String, Price : double, Waehrung : String)&lt;br style=&quot;border-color: var(--border-color);&quot;&gt;+ GetPrice(Stockname : String) : double&lt;br&gt;&lt;b style=&quot;border-color: var(--border-color);&quot;&gt;+ SetPrice(Stockname : String) : double&lt;/b&gt;&lt;br style=&quot;border-color: var(--border-color);&quot;&gt;+ GetName(Stockname : String) : String&lt;br&gt;&lt;b style=&quot;border-color: var(--border-color);&quot;&gt;+ SetName(Stockname : String) : String&lt;/b&gt;&lt;br style=&quot;border-color: var(--border-color);&quot;&gt;+ GetWaehrung(Stocckname: String) : String&lt;br&gt;&lt;b style=&quot;border-color: var(--border-color);&quot;&gt;+ SetWaehrung(Stocckname: String) : String&lt;/b&gt;&lt;br&gt;&lt;/b&gt;" style="text;strokeColor=none;fillColor=none;align=left;verticalAlign=top;spacingLeft=4;spacingRight=4;overflow=hidden;rotatable=0;points=[[0,0.5],[1,0.5]];portConstraint=eastwest;whiteSpace=wrap;html=1;" parent="052il4yMvHA40FeF9xnv-21" vertex="1">
          <mxGeometry y="96" width="380" height="114" as="geometry" />
        </mxCell>
        <mxCell id="052il4yMvHA40FeF9xnv-25" value="&lt;div style=&quot;&quot;&gt;&lt;span style=&quot;background-color: initial;&quot;&gt;«interface»&lt;/span&gt;&lt;/div&gt;&lt;b&gt;&lt;div style=&quot;&quot;&gt;&lt;b style=&quot;background-color: initial;&quot;&gt;stockExchange&lt;/b&gt;&lt;/div&gt;&lt;div style=&quot;text-align: left;&quot;&gt;&lt;b style=&quot;background-color: initial;&quot;&gt;----------------------------------------------------------------&lt;/b&gt;&lt;/div&gt;&lt;div style=&quot;text-align: left;&quot;&gt;&lt;b style=&quot;background-color: initial;&quot;&gt;+ GetPrice(Stockname : String) : double&lt;/b&gt;&lt;/div&gt;&lt;div style=&quot;text-align: left;&quot;&gt;&lt;b style=&quot;background-color: initial;&quot;&gt;+ AlleAktienMarketAnzeigen() : void&lt;/b&gt;&lt;/div&gt;&lt;div style=&quot;text-align: left;&quot;&gt;&lt;b style=&quot;background-color: initial;&quot;&gt;+ GetName(Stockname : String) : String&lt;/b&gt;&lt;/div&gt;&lt;div style=&quot;text-align: left;&quot;&gt;&lt;b style=&quot;background-color: initial;&quot;&gt;+ GetWaehrung(Stocckname: String) : String&lt;/b&gt;&lt;/div&gt;&lt;/b&gt;" style="html=1;whiteSpace=wrap;" parent="WIyWlLk6GJQsqaUBKTNV-1" vertex="1">
          <mxGeometry x="330" y="524.5" width="270" height="120" as="geometry" />
        </mxCell>
        <mxCell id="052il4yMvHA40FeF9xnv-26" value="" style="endArrow=block;dashed=1;endFill=0;endSize=12;html=1;rounded=0;exitX=0.25;exitY=0;exitDx=0;exitDy=0;" parent="WIyWlLk6GJQsqaUBKTNV-1" source="052il4yMvHA40FeF9xnv-5" edge="1">
          <mxGeometry width="160" relative="1" as="geometry">
            <mxPoint x="250" y="860" as="sourcePoint" />
            <mxPoint x="450" y="650" as="targetPoint" />
          </mxGeometry>
        </mxCell>
        <mxCell id="052il4yMvHA40FeF9xnv-27" value="" style="endArrow=block;dashed=1;endFill=0;endSize=12;html=1;rounded=0;exitX=0.381;exitY=-0.023;exitDx=0;exitDy=0;exitPerimeter=0;" parent="WIyWlLk6GJQsqaUBKTNV-1" source="052il4yMvHA40FeF9xnv-17" edge="1">
          <mxGeometry width="160" relative="1" as="geometry">
            <mxPoint x="210" y="860" as="sourcePoint" />
            <mxPoint x="520" y="650" as="targetPoint" />
          </mxGeometry>
        </mxCell>
        <mxCell id="052il4yMvHA40FeF9xnv-28" value="" style="endArrow=block;dashed=1;endFill=0;endSize=12;html=1;rounded=0;entryX=0.115;entryY=1.022;entryDx=0;entryDy=0;entryPerimeter=0;" parent="WIyWlLk6GJQsqaUBKTNV-1" source="052il4yMvHA40FeF9xnv-13" target="052il4yMvHA40FeF9xnv-25" edge="1">
          <mxGeometry width="160" relative="1" as="geometry">
            <mxPoint x="170" y="840" as="sourcePoint" />
            <mxPoint x="330" y="840" as="targetPoint" />
          </mxGeometry>
        </mxCell>
        <mxCell id="052il4yMvHA40FeF9xnv-30" value="" style="endArrow=diamondThin;endFill=1;endSize=24;html=1;rounded=0;entryX=0.489;entryY=0.989;entryDx=0;entryDy=0;entryPerimeter=0;exitX=0.837;exitY=0.014;exitDx=0;exitDy=0;exitPerimeter=0;" parent="WIyWlLk6GJQsqaUBKTNV-1" source="052il4yMvHA40FeF9xnv-21" target="052il4yMvHA40FeF9xnv-20" edge="1">
          <mxGeometry width="160" relative="1" as="geometry">
            <mxPoint x="470" y="1120" as="sourcePoint" />
            <mxPoint x="630" y="1120" as="targetPoint" />
          </mxGeometry>
        </mxCell>
        <mxCell id="052il4yMvHA40FeF9xnv-31" value="" style="endArrow=diamondThin;endFill=1;endSize=24;html=1;rounded=0;entryX=0.536;entryY=1.111;entryDx=0;entryDy=0;entryPerimeter=0;exitX=0.121;exitY=-0.014;exitDx=0;exitDy=0;exitPerimeter=0;" parent="WIyWlLk6GJQsqaUBKTNV-1" source="052il4yMvHA40FeF9xnv-21" target="052il4yMvHA40FeF9xnv-16" edge="1">
          <mxGeometry width="160" relative="1" as="geometry">
            <mxPoint x="120" y="1120" as="sourcePoint" />
            <mxPoint x="280" y="1120" as="targetPoint" />
          </mxGeometry>
        </mxCell>
        <mxCell id="052il4yMvHA40FeF9xnv-32" value="" style="endArrow=diamondThin;endFill=1;endSize=24;html=1;rounded=0;exitX=0.463;exitY=-0.012;exitDx=0;exitDy=0;exitPerimeter=0;" parent="WIyWlLk6GJQsqaUBKTNV-1" source="052il4yMvHA40FeF9xnv-21" edge="1">
          <mxGeometry width="160" relative="1" as="geometry">
            <mxPoint x="730" y="1140" as="sourcePoint" />
            <mxPoint x="496" y="870" as="targetPoint" />
          </mxGeometry>
        </mxCell>
        <mxCell id="052il4yMvHA40FeF9xnv-33" value="" style="endArrow=diamondThin;endFill=0;endSize=24;html=1;rounded=0;entryX=0.492;entryY=1.019;entryDx=0;entryDy=0;entryPerimeter=0;exitX=0.5;exitY=0;exitDx=0;exitDy=0;" parent="WIyWlLk6GJQsqaUBKTNV-1" source="052il4yMvHA40FeF9xnv-25" target="052il4yMvHA40FeF9xnv-12" edge="1">
          <mxGeometry width="160" relative="1" as="geometry">
            <mxPoint x="670" y="530" as="sourcePoint" />
            <mxPoint x="830" y="530" as="targetPoint" />
          </mxGeometry>
        </mxCell>
        <mxCell id="052il4yMvHA40FeF9xnv-34" value="" style="endArrow=diamondThin;endFill=1;endSize=24;html=1;rounded=0;entryX=0.45;entryY=1.029;entryDx=0;entryDy=0;entryPerimeter=0;exitX=0.484;exitY=-0.014;exitDx=0;exitDy=0;exitPerimeter=0;" parent="WIyWlLk6GJQsqaUBKTNV-1" source="052il4yMvHA40FeF9xnv-9" target="052il4yMvHA40FeF9xnv-3" edge="1">
          <mxGeometry width="160" relative="1" as="geometry">
            <mxPoint x="460" y="280" as="sourcePoint" />
            <mxPoint x="910" y="240" as="targetPoint" />
          </mxGeometry>
        </mxCell>
      </root>
    </mxGraphModel>
  </diagram>
</mxfile>
